<?xml version="1.0" encoding="utf-8"?>
<!-- Generator: Adobe Illustrator 16.0.0, SVG Export Plug-In . SVG Version: 6.00 Build 0)  -->
<!DOCTYPE svg PUBLIC "-//W3C//DTD SVG 1.1//EN" "http://www.w3.org/Graphics/SVG/1.1/DTD/svg11.dtd">
<svg version="1.1" id="Layer_1" xmlns="http://www.w3.org/2000/svg" xmlns:xlink="http://www.w3.org/1999/xlink" x="0px" y="0px"
	 width="81.435px" height="45.242px" viewBox="9.282 27.378 81.435 45.242" enable-background="new 9.282 27.378 81.435 45.242"
	 xml:space="preserve">
<g>
	<path fill="#E6E7E8" d="M78.404,46.408l-5.971-1.306c-4.104-0.932-5.315-2.611-5.315-5.41c0-3.171,2.518-5.037,6.622-5.037
		c4.478,0,6.902,1.68,7.275,5.69l9.328-1.119C89.598,30.83,83.814,27.378,74.3,27.378c-8.396,0-16.604,3.172-16.604,13.34
		c0,6.344,3.078,10.354,10.82,12.22l6.344,1.492c4.758,1.12,6.343,3.079,6.343,5.784c0,3.451-3.356,4.851-9.701,4.851
		c-9.421,0-13.338-4.943-15.578-11.754l-3.077-9.327C48.928,31.857,42.678,27.378,30.27,27.378
		c-13.712,0-20.988,8.676-20.988,23.414c0,14.181,7.276,21.828,20.336,21.828c10.541,0,15.578-4.944,15.578-4.944l-2.985-8.115
		c0,0-4.851,5.412-12.126,5.412c-6.437,0-11.008-5.599-11.008-14.554c0-11.474,5.783-15.578,11.474-15.578
		c8.208,0,10.82,5.317,13.059,12.127l2.985,9.328c2.984,9.048,8.581,16.324,24.719,16.324c11.567,0,19.402-3.545,19.402-12.873
		C90.718,52.191,86.426,48.274,78.404,46.408z"/>
</g>
</svg>
