<?xml version="1.0" encoding="utf-8"?>
<!-- Generator: Adobe Illustrator 16.0.0, SVG Export Plug-In . SVG Version: 6.00 Build 0)  -->
<!DOCTYPE svg PUBLIC "-//W3C//DTD SVG 1.1//EN" "http://www.w3.org/Graphics/SVG/1.1/DTD/svg11.dtd">
<svg version="1.1" id="Layer_1" xmlns="http://www.w3.org/2000/svg" xmlns:xlink="http://www.w3.org/1999/xlink" x="0px" y="0px"
	 width="74.601px" height="72.746px" viewBox="0.001 0 74.601 72.746" enable-background="new 0.001 0 74.601 72.746"
	 xml:space="preserve">
<g>
	<path fill="#ED2724" d="M71.406,0L71.406,0H20.239l0,0c-1.765,0-3.195,1.431-3.195,3.195v48.069
		c-1.131-0.248-2.314-0.394-3.543-0.394c-7.456,0-13.5,4.896-13.5,10.938c0,6.041,6.044,10.938,13.5,10.938
		c7.455,0,13.5-4.896,13.5-10.938V15.63h37.644v26.401c-1.131-0.248-2.313-0.395-3.543-0.395c-7.454,0-13.5,4.896-13.5,10.938
		c0,6.043,6.046,10.938,13.5,10.938c7.455,0,13.5-4.896,13.5-10.938V3.196C74.6,1.431,73.171,0.001,71.406,0z"/>
</g>
</svg>
