<?xml version="1.0" encoding="utf-8"?>
<!-- Generator: Adobe Illustrator 16.0.0, SVG Export Plug-In . SVG Version: 6.00 Build 0)  -->
<!DOCTYPE svg PUBLIC "-//W3C//DTD SVG 1.1//EN" "http://www.w3.org/Graphics/SVG/1.1/DTD/svg11.dtd">
<svg version="1.1" id="Layer_1" xmlns="http://www.w3.org/2000/svg" xmlns:xlink="http://www.w3.org/1999/xlink" x="0px" y="0px"
	 width="85.082px" height="73.208px" viewBox="7.459 13.395 85.082 73.208" enable-background="new 7.459 13.395 85.082 73.208"
	 xml:space="preserve">
<g>
	<path fill="#E6E7E8" d="M60.416,35.232l-0.021,0.022l1.922,1.924l0.031-0.031c0.025,0.025,0.043,0.057,0.067,0.083
		c4.39,4.39,6.071,10.47,5.06,16.163l7.867,7.867c4.385-10.268,2.403-22.629-5.964-30.994c-0.026-0.026-0.056-0.042-0.082-0.067
		l0.009-0.008l-1.925-1.923l-0.022,0.021c-1.049-0.835-2.566-0.787-3.553,0.161L63.8,28.446l-0.034,0.035
		c-0.002,0.001-0.002,0.001-0.004,0.002c0,0.001-0.002,0.002-0.002,0.003l-3.148,3.148c-0.002,0.001-0.002,0.002-0.004,0.002
		c0,0.001-0.002,0.002-0.002,0.003l-0.225,0.225l0.023,0.021C59.633,32.872,59.637,34.253,60.416,35.232z"/>
	<path fill="#E6E7E8" d="M78.868,17.089c-0.026-0.025-0.056-0.042-0.082-0.067l0.008-0.008l-1.924-1.923l-0.022,0.022
		c-1.05-0.836-2.565-0.788-3.553,0.161l-0.004-0.004l-3.419,3.418l0.022,0.023c-0.772,0.983-0.771,2.365,0.01,3.345l-0.021,0.021
		l0.217,0.216l0,0l0,0l1.707,1.708l0.03-0.031c0.024,0.026,0.042,0.057,0.067,0.083c11.152,11.153,13.662,27.718,7.545,41.314
		l7.332,7.332C96.533,54.93,93.906,32.127,78.868,17.089z"/>
	<path fill="#E6E7E8" d="M54.826,25.708h-0.024c-0.116-1.031-0.983-1.837-2.047-1.837c-0.378,0-0.728,0.108-1.03,0.285l-0.019-0.032
		l-8.558,4.941l11.679,11.68L54.826,25.708L54.826,25.708z"/>
	<path fill="#E6E7E8" d="M23.502,40.42H9.021v0.039c-0.012,0-0.024-0.002-0.037-0.002c-0.842,0-1.525,0.684-1.525,1.524v20.661
		c0,0.842,0.683,1.523,1.525,1.523c0.013,0,0.024-0.004,0.037-0.004v0.041h14.482l11.524,6.651v-0.03l16.548,9.555
		c0.336,0.231,0.741,0.373,1.181,0.373c1.143,0,2.071-0.928,2.071-2.07c0-0.08-0.015-0.154-0.024-0.232h0.024v-9.412L25.219,39.428
		L23.502,40.42z"/>
	<path fill="#E6E7E8" d="M85.818,78.788L21.172,14.141l-0.002,0.002c-0.006-0.006-0.01-0.013-0.016-0.02
		c-0.971-0.971-2.545-0.97-3.516,0c-0.034,0.034-0.058,0.074-0.09,0.11l-3.458,3.476c-0.004,0.004-0.008,0.006-0.012,0.01
		c-0.971,0.97-0.971,2.545,0,3.515l64.65,64.651l0.002-0.002c0.971,0.963,2.537,0.959,3.506-0.008l0.005,0.004l3.432-3.449
		c0.05-0.041,0.103-0.076,0.15-0.123c0.97-0.971,0.97-2.545,0-3.516C85.82,78.792,85.818,78.79,85.818,78.788z"/>
</g>
</svg>
