<?xml version="1.0" encoding="utf-8"?>
<!-- Generator: Adobe Illustrator 16.0.0, SVG Export Plug-In . SVG Version: 6.00 Build 0)  -->
<!DOCTYPE svg PUBLIC "-//W3C//DTD SVG 1.1//EN" "http://www.w3.org/Graphics/SVG/1.1/DTD/svg11.dtd">
<svg version="1.1" id="Layer_1" xmlns="http://www.w3.org/2000/svg" xmlns:xlink="http://www.w3.org/1999/xlink" x="0px" y="0px"
	 width="77.556px" height="59.966px" viewBox="11.223 20.018 77.556 59.966" enable-background="new 11.223 20.018 77.556 59.966"
	 xml:space="preserve">
<g>
	<path fill="#E6E7E8" d="M88.766,77.291v-54.72c0-0.002,0-0.003,0-0.005s0-0.004,0-0.005v-0.235h-0.024
		c-0.123-1.286-1.194-2.296-2.513-2.296c-0.03,0-0.059,0.008-0.088,0.009h-4.568c-0.071-0.006-0.141-0.021-0.213-0.021
		c-1.4,0-2.537,1.136-2.537,2.537c0,0.117,0.019,0.23,0.035,0.343v23.141l-33.341-19.25c-0.31-0.307-0.736-0.497-1.207-0.497
		c-0.932,0-1.686,0.743-1.713,1.669H42.59V43.21L14.148,26.788c-0.31-0.307-0.736-0.497-1.207-0.497
		c-0.932,0-1.687,0.743-1.713,1.669h-0.005v44.031c0,0.948,0.77,1.718,1.718,1.718c0.483,0,0.918-0.2,1.23-0.521L42.59,56.779
		v15.213c0,0.949,0.769,1.718,1.718,1.718c0.483,0,0.918-0.2,1.23-0.521l33.319-19.237v23.382h0.013
		c-0.002,0.039-0.013,0.075-0.013,0.114c0,1.399,1.135,2.532,2.533,2.536l0,0h4.852V79.96c1.4,0,2.537-1.136,2.537-2.537
		C88.777,77.377,88.768,77.335,88.766,77.291z"/>
</g>
</svg>
