<?xml version="1.0" encoding="utf-8"?>
<!-- Generator: Adobe Illustrator 16.0.0, SVG Export Plug-In . SVG Version: 6.00 Build 0)  -->
<!DOCTYPE svg PUBLIC "-//W3C//DTD SVG 1.1//EN" "http://www.w3.org/Graphics/SVG/1.1/DTD/svg11.dtd">
<svg version="1.1" id="Layer_1" xmlns="http://www.w3.org/2000/svg" xmlns:xlink="http://www.w3.org/1999/xlink" x="0px" y="0px"
	 width="44.506px" height="60.082px" viewBox="27.747 19.959 44.506 60.082" enable-background="new 27.747 19.959 44.506 60.082"
	 xml:space="preserve">
<g>
	<path fill="#ED2724" d="M40.532,19.959c-0.098,0-0.191,0.016-0.283,0.029v-0.029H29.913h-0.002c-1.193,0-2.162,0.968-2.162,2.163
		c0,0.002,0,0.003,0,0.005h-0.002V77.87h0.002c0,0.003-0.002,0.006-0.002,0.009c0,1.194,0.969,2.162,2.164,2.162l0,0l0,0H40.53l0,0
		c1.194,0,2.162-0.968,2.162-2.162c0-0.003-0.001-0.006-0.001-0.009h0.001V22.127l0,0c0-0.002,0.001-0.004,0.001-0.005
		C42.693,20.927,41.724,19.959,40.532,19.959z"/>
	<path fill="#ED2724" d="M72.25,77.87V22.127l0,0c0-0.002,0.002-0.004,0.002-0.005c0-1.195-0.969-2.163-2.162-2.163
		c-0.098,0-0.189,0.016-0.283,0.029v-0.029H59.471l0,0c-1.195,0-2.164,0.968-2.164,2.163c0,0.002,0,0.003,0,0.005l0,0V77.87l0,0
		c0,0.003,0,0.006,0,0.009c0,1.194,0.969,2.162,2.162,2.162l0,0l0,0h10.617l0,0c1.195,0,2.162-0.968,2.162-2.162
		C72.25,77.876,72.25,77.873,72.25,77.87L72.25,77.87z"/>
</g>
</svg>
