<?xml version="1.0" encoding="utf-8"?>
<!-- Generator: Adobe Illustrator 16.0.0, SVG Export Plug-In . SVG Version: 6.00 Build 0)  -->
<!DOCTYPE svg PUBLIC "-//W3C//DTD SVG 1.1//EN" "http://www.w3.org/Graphics/SVG/1.1/DTD/svg11.dtd">
<svg version="1.1" id="Layer_1" xmlns="http://www.w3.org/2000/svg" xmlns:xlink="http://www.w3.org/1999/xlink" x="0px" y="0px"
	 width="77.555px" height="59.967px" viewBox="11.222 20.017 77.555 59.967" enable-background="new 11.222 20.017 77.555 59.967"
	 xml:space="preserve">
<g>
	<path fill="#E6E7E8" d="M87.061,26.291c-0.483,0-0.918,0.2-1.23,0.521L57.41,43.22V28.009c0-0.949-0.77-1.718-1.719-1.718
		c-0.482,0-0.918,0.2-1.229,0.521L21.144,46.049V22.667h-0.013c0.002-0.039,0.012-0.075,0.012-0.114
		c0-1.399-1.134-2.533-2.532-2.536l0,0h-4.852v0.024c-1.401,0-2.537,1.136-2.537,2.537c0,0.045,0.011,0.086,0.013,0.131V77.43
		c0,0.002,0,0.004,0,0.006s0,0.002,0,0.004v0.236h0.024c0.123,1.286,1.194,2.297,2.513,2.297c0.03,0,0.058-0.009,0.087-0.01h4.569
		c0.071,0.006,0.14,0.021,0.213,0.021c1.4,0,2.537-1.137,2.537-2.537c0-0.117-0.019-0.23-0.035-0.344V53.962l33.341,19.25
		c0.31,0.308,0.736,0.497,1.207,0.497c0.932,0,1.686-0.743,1.713-1.669h0.005V56.791l28.442,16.422
		c0.311,0.307,0.736,0.497,1.207,0.497c0.933,0,1.688-0.743,1.713-1.669h0.006V28.009C88.777,27.06,88.008,26.291,87.061,26.291z"/>
</g>
</svg>
