<?xml version="1.0" encoding="utf-8"?>
<!-- Generator: Adobe Illustrator 16.0.0, SVG Export Plug-In . SVG Version: 6.00 Build 0)  -->
<!DOCTYPE svg PUBLIC "-//W3C//DTD SVG 1.1//EN" "http://www.w3.org/Graphics/SVG/1.1/DTD/svg11.dtd">
<svg version="1.1" id="Layer_1" xmlns="http://www.w3.org/2000/svg" xmlns:xlink="http://www.w3.org/1999/xlink" x="0px" y="0px"
	 width="90.233px" height="65.448px" viewBox="4.884 17.278 90.233 65.448" enable-background="new 4.884 17.278 90.233 65.448"
	 xml:space="preserve">
<g>
	<path fill="#E6E7E8" d="M19.401,62.223H8.022c-0.169-0.037-0.344-0.058-0.524-0.058c-1.236,0-2.263,0.885-2.488,2.058H4.962v11
		h0.076c0.237,0.99,1.056,1.75,2.078,1.904v0.096h17v-0.063c1.738-0.021,3.229-1.009,4.002-2.443L38.63,64.206L28.024,53.6
		L19.401,62.223z"/>
	<path fill="#E6E7E8" d="M94.65,30.776l-18.612-13.26c-0.394-0.28-0.892-0.315-1.319-0.095c-0.428,0.22-0.688,0.662-0.688,1.146
		l0.004,5.599H59.116v0.026c-1.066,0.06-2.029,0.476-2.781,1.138l-0.021-0.021L45.722,35.9l10.607,10.606l7.341-7.341h10.368
		l0.002,6.005c0,0.481,0.271,0.925,0.7,1.146c0.429,0.222,0.944,0.183,1.34-0.1l18.575-13.346c0.339-0.241,0.462-0.631,0.462-1.046
		c0-0.003,0-0.003,0-0.003C95.116,31.406,94.991,31.017,94.65,30.776z"/>
	<path fill="#E6E7E8" d="M94.578,67.126L76.002,53.781c-0.396-0.282-0.911-0.319-1.339-0.1c-0.43,0.223-0.7,0.666-0.7,1.146
		l-0.002,6.005H63.592L28.04,25.281c-0.772-1.435-2.264-2.421-4.001-2.442v-0.061h-17v0.094c-1.022,0.156-1.84,0.914-2.078,1.906
		H4.884v11h0.049c0.226,1.171,1.252,2.056,2.488,2.056c0.18,0,0.354-0.02,0.524-0.056h11.379l36.911,36.914l0.021-0.021
		c0.754,0.662,1.717,1.078,2.782,1.14v0.024h14.916l-0.002,5.601c0,0.482,0.26,0.928,0.688,1.146
		c0.428,0.224,0.926,0.188,1.318-0.093l18.614-13.26c0.34-0.242,0.465-0.631,0.465-1.051c0,0,0,0,0-0.004
		C95.039,67.758,94.916,67.367,94.578,67.126z"/>
</g>
</svg>
