<?xml version="1.0" encoding="utf-8"?>
<!-- Generator: Adobe Illustrator 16.0.0, SVG Export Plug-In . SVG Version: 6.00 Build 0)  -->
<!DOCTYPE svg PUBLIC "-//W3C//DTD SVG 1.1//EN" "http://www.w3.org/Graphics/SVG/1.1/DTD/svg11.dtd">
<svg version="1.1" id="Layer_1" xmlns="http://www.w3.org/2000/svg" xmlns:xlink="http://www.w3.org/1999/xlink" x="0px" y="0px"
	 width="90.233px" height="65.448px" viewBox="1.583 -0.633 90.233 65.448" enable-background="new 1.583 -0.633 90.233 65.448"
	 xml:space="preserve">
<g>
	<path fill="#ED2724" d="M16.1,44.312H4.721c-0.169-0.037-0.344-0.058-0.524-0.058c-1.236,0-2.263,0.885-2.488,2.058H1.661v11h0.076
		c0.237,0.99,1.056,1.75,2.078,1.904v0.096h17V59.25c1.738-0.021,3.229-1.009,4.002-2.443l10.512-10.512L24.723,35.689L16.1,44.312z
		"/>
	<path fill="#ED2724" d="M91.349,12.865L72.737-0.395c-0.394-0.28-0.892-0.315-1.319-0.095c-0.428,0.22-0.688,0.662-0.688,1.146
		l0.004,5.599H55.816v0.026c-1.066,0.06-2.029,0.476-2.781,1.138l-0.021-0.021l-10.592,10.59l10.607,10.606l7.341-7.341h10.368
		l0.002,6.005c0,0.481,0.271,0.925,0.7,1.146c0.429,0.222,0.944,0.183,1.34-0.1l18.575-13.346c0.339-0.241,0.462-0.631,0.462-1.046
		c0-0.003,0-0.003,0-0.003C91.816,13.495,91.691,13.106,91.349,12.865z"/>
	<path fill="#ED2724" d="M91.278,49.215L72.701,35.87c-0.396-0.282-0.911-0.319-1.339-0.1c-0.43,0.223-0.7,0.666-0.7,1.146
		l-0.002,6.005H60.291L24.74,7.37c-0.772-1.435-2.264-2.421-4.001-2.442V4.867h-17v0.094C2.716,5.117,1.899,5.875,1.66,6.867H1.583
		v11h0.049c0.226,1.171,1.252,2.056,2.488,2.056c0.18,0,0.354-0.02,0.524-0.056h11.379l36.911,36.914l0.021-0.021
		c0.754,0.662,1.717,1.078,2.782,1.14v0.024h14.916l-0.002,5.601c0,0.482,0.26,0.928,0.688,1.146
		c0.428,0.224,0.926,0.188,1.318-0.093l18.614-13.26c0.34-0.242,0.465-0.631,0.465-1.051c0,0,0,0,0-0.004
		C91.739,49.846,91.615,49.456,91.278,49.215z"/>
</g>
</svg>
