<?xml version="1.0" encoding="utf-8"?>
<!-- Generator: Adobe Illustrator 16.0.0, SVG Export Plug-In . SVG Version: 6.00 Build 0)  -->
<!DOCTYPE svg PUBLIC "-//W3C//DTD SVG 1.1//EN" "http://www.w3.org/Graphics/SVG/1.1/DTD/svg11.dtd">
<svg version="1.1" id="Layer_1" xmlns="http://www.w3.org/2000/svg" xmlns:xlink="http://www.w3.org/1999/xlink" x="0px" y="0px"
	 width="85.092px" height="71.094px" viewBox="7.454 14.454 85.092 71.094" enable-background="new 7.454 14.454 85.092 71.094"
	 xml:space="preserve">
<g>
	<path fill="#E6E7E8" d="M78.863,17.021c-0.025-0.026-0.055-0.042-0.081-0.067l0.008-0.008l-1.924-1.923l-0.022,0.022
		c-1.05-0.836-2.566-0.788-3.553,0.161l-0.004-0.004l-3.419,3.418l0.022,0.023c-0.772,0.983-0.77,2.365,0.01,3.345l-0.021,0.022
		l0.217,0.216l0,0l0,0l1.706,1.708l0.031-0.031c0.024,0.026,0.042,0.057,0.067,0.083c14.357,14.358,14.4,37.688,0.138,52.104
		l-0.019-0.02l-1.707,1.707l0,0l0,0l-0.217,0.217l0.022,0.021c-0.836,1.051-0.787,2.568,0.159,3.553l-0.004,0.005l3.42,3.42
		l0.023-0.022c0.983,0.772,2.365,0.769,3.346-0.012l0.021,0.021l0.216-0.215l0,0l0,0l1.707-1.707l-0.004-0.004
		C97.105,64.797,97.061,35.219,78.863,17.021z"/>
	<path fill="#E6E7E8" d="M69.376,30.198c-0.026-0.026-0.056-0.042-0.082-0.067l0.008-0.008L67.377,28.2l-0.021,0.022
		c-1.051-0.836-2.568-0.787-3.555,0.16l-0.004-0.004l-0.035,0.035c-0.001,0.001-0.002,0.002-0.003,0.002
		c-0.001,0.001-0.002,0.002-0.002,0.003l-3.149,3.148c0,0.001-0.002,0.002-0.002,0.002c-0.002,0.001-0.002,0.002-0.002,0.003
		l-0.226,0.225l0.022,0.023c-0.772,0.984-0.769,2.365,0.012,3.344l-0.021,0.022l1.922,1.924l0.031-0.031
		c0.025,0.026,0.043,0.057,0.067,0.083c7.091,7.091,7.132,18.594,0.135,25.746l-0.014-0.015L60.825,64.6c0,0,0,0-0.001,0h-0.001
		l-0.216,0.215l0.022,0.022c-0.836,1.05-0.788,2.569,0.16,3.554l-0.004,0.004l3.42,3.42l0.022-0.022
		c0.983,0.772,2.364,0.769,3.345-0.011l0.022,0.021l1.922-1.923l-0.004-0.004C80.352,58.886,80.309,41.131,69.376,30.198z"/>
	<path fill="#E6E7E8" d="M52.751,23.803c-0.378,0-0.728,0.108-1.03,0.285l-0.019-0.032L31.238,35.871v0.012l-7.74,4.469H9.016v0.04
		c-0.012,0-0.024-0.004-0.037-0.004c-0.842,0-1.525,0.684-1.525,1.525v20.66c0,0.842,0.683,1.524,1.525,1.524
		c0.013,0,0.024-0.004,0.037-0.005v0.041h14.482l11.524,6.653v-0.031l16.548,9.555c0.336,0.232,0.742,0.373,1.181,0.373
		c1.144,0,2.071-0.928,2.071-2.07c0-0.081-0.016-0.155-0.024-0.233h0.024V25.64h-0.024C54.682,24.609,53.814,23.803,52.751,23.803z"
		/>
</g>
</svg>
