<?xml version="1.0" encoding="utf-8"?>
<!-- Generator: Adobe Illustrator 16.0.0, SVG Export Plug-In . SVG Version: 6.00 Build 0)  -->
<!DOCTYPE svg PUBLIC "-//W3C//DTD SVG 1.1//EN" "http://www.w3.org/Graphics/SVG/1.1/DTD/svg11.dtd">
<svg version="1.1" id="Layer_1" xmlns="http://www.w3.org/2000/svg" xmlns:xlink="http://www.w3.org/1999/xlink" x="0px" y="0px"
	 width="85.091px" height="71.094px" viewBox="7.454 14.454 85.091 71.094" enable-background="new 7.454 14.454 85.091 71.094"
	 xml:space="preserve">
<g>
	<path fill="#ED2724" d="M78.862,17.021c-0.024-0.026-0.055-0.042-0.08-0.067l0.008-0.008l-1.924-1.923l-0.022,0.022
		c-1.05-0.836-2.565-0.788-3.553,0.161l-0.004-0.004l-3.419,3.418l0.021,0.023c-0.771,0.983-0.77,2.365,0.01,3.345l-0.021,0.022
		l0.218,0.216l0,0l0,0l1.705,1.708l0.031-0.031c0.023,0.026,0.042,0.057,0.066,0.083c14.357,14.358,14.4,37.688,0.139,52.104
		l-0.02-0.02l-1.707,1.707l0,0l0,0l-0.217,0.217l0.022,0.021c-0.836,1.051-0.787,2.567,0.159,3.553l-0.004,0.005l3.42,3.42
		l0.022-0.022c0.983,0.772,2.365,0.77,3.347-0.012l0.021,0.021l0.216-0.215l0,0l0,0l1.707-1.707l-0.004-0.004
		C97.104,64.797,97.062,35.219,78.862,17.021z"/>
	<path fill="#ED2724" d="M69.376,30.198c-0.025-0.026-0.057-0.042-0.082-0.067l0.008-0.008L67.377,28.2l-0.021,0.022
		c-1.051-0.836-2.568-0.787-3.556,0.16l-0.004-0.004l-0.034,0.035c-0.002,0.001-0.003,0.002-0.004,0.002
		c-0.001,0.001-0.002,0.002-0.002,0.003l-3.148,3.148c0,0.001-0.002,0.002-0.002,0.002c-0.002,0.001-0.002,0.002-0.002,0.003
		l-0.227,0.225l0.021,0.023c-0.771,0.984-0.769,2.365,0.013,3.344l-0.021,0.022l1.922,1.924l0.03-0.031
		c0.025,0.025,0.044,0.057,0.067,0.083c7.091,7.091,7.132,18.594,0.135,25.746l-0.014-0.015L60.825,64.6c0,0,0,0-0.001,0h-0.001
		l-0.217,0.215l0.022,0.022c-0.836,1.05-0.788,2.569,0.16,3.554l-0.004,0.004l3.42,3.42l0.022-0.021
		c0.982,0.771,2.363,0.77,3.344-0.011l0.023,0.021l1.922-1.923l-0.004-0.004C80.353,58.886,80.31,41.131,69.376,30.198z"/>
	<path fill="#ED2724" d="M52.751,23.803c-0.378,0-0.729,0.108-1.029,0.285l-0.02-0.032L31.238,35.871v0.012l-7.74,4.469H9.016v0.041
		c-0.012,0-0.024-0.004-0.037-0.004c-0.842,0-1.525,0.684-1.525,1.524v20.66c0,0.842,0.683,1.524,1.525,1.524
		c0.013,0,0.024-0.005,0.037-0.006v0.041h14.482l11.524,6.653v-0.031l16.547,9.556c0.337,0.231,0.742,0.373,1.182,0.373
		c1.145,0,2.07-0.929,2.07-2.07c0-0.081-0.016-0.155-0.023-0.233h0.023V25.64h-0.023C54.683,24.609,53.813,23.803,52.751,23.803z"/>
</g>
</svg>
