<?xml version="1.0" encoding="utf-8"?>
<!-- Generator: Adobe Illustrator 16.0.0, SVG Export Plug-In . SVG Version: 6.00 Build 0)  -->
<!DOCTYPE svg PUBLIC "-//W3C//DTD SVG 1.1//EN" "http://www.w3.org/Graphics/SVG/1.1/DTD/svg11.dtd">
<svg version="1.1" id="Layer_1" xmlns="http://www.w3.org/2000/svg" xmlns:xlink="http://www.w3.org/1999/xlink" x="0px" y="0px"
	 width="70.579px" height="70.575px" viewBox="0 0 70.579 70.575" enable-background="new 0 0 70.579 70.575" xml:space="preserve">
<path fill="#ED2724" d="M69.997,54.04L51.241,35.286l18.75-18.752c0.776-0.777,0.776-2.036,0-2.813L56.855,0.582
	c-0.776-0.777-2.037-0.777-2.813,0L35.288,19.334L16.538,0.582c-0.746-0.747-2.067-0.747-2.814,0L0.586,13.718
	c-0.373,0.373-0.583,0.88-0.583,1.407s0.21,1.034,0.583,1.407l18.753,18.753L0.583,54.04C0.21,54.415,0,54.92,0,55.448
	c0,0.526,0.21,1.034,0.583,1.405l13.136,13.138c0.373,0.373,0.881,0.584,1.41,0.584c0.525,0,1.031-0.211,1.404-0.584l18.754-18.754
	l18.756,18.754c0.391,0.387,0.896,0.582,1.408,0.582c0.51,0,1.02-0.195,1.405-0.582l13.14-13.138
	C70.773,56.077,70.773,54.816,69.997,54.04z"/>
</svg>
